# xmcd
#
# Track frame offsets:
#	150
#	19125
#	42351
#	79524
#	101488
#	137467
#	161621
#	177576
#	196401
#
# Disc length: 3002 seconds
#
# Revision: 1
# Processed by: cddbd v1.5.2PL0 Copyright (c) Steve Scherf et al.
# Submitted via: audiograbber 1.83.01
#
DISCID=6d0bb809
DTITLE=Bas Paardekooper and The Blew Crue - Songs From Room 111
DYEAR=2014
DGENRE=Blues
TTITLE0=Room 111
TTITLE1=You Don't Have To Beg No More
TTITLE2=Angel Walk With Me
TTITLE3=Just Say I Do
TTITLE4=Lose The Blues
TTITLE5=Nothing Lasts Forever
TTITLE6=When I Come Around
TTITLE7=Another Day On The Road
TTITLE8=Why A Man Needs A Woman
EXTD=
EXTT0=
EXTT1=
EXTT2=
EXTT3=
EXTT4=
EXTT5=
EXTT6=
EXTT7=
EXTT8=
PLAYORDER=
